<mxfile host="app.diagrams.net" modified="2023-02-06T02:52:14.219Z" agent="5.0 (Windows NT 10.0; Win64; x64) AppleWebKit/537.36 (KHTML, like Gecko) Chrome/103.0.0.0 Safari/537.36" etag="DAAQGefPfpdqCCG3mXeT" version="20.8.16" type="github">
  <diagram name="第 1 页" id="G9W8rqyxLX-q6ydFrtmz">
    <mxGraphModel dx="880" dy="494" grid="1" gridSize="10" guides="1" tooltips="1" connect="1" arrows="1" fold="1" page="1" pageScale="1" pageWidth="827" pageHeight="1169" math="0" shadow="0">
      <root>
        <mxCell id="0" />
        <mxCell id="1" parent="0" />
        <mxCell id="Gnk-OYqFD_igb2B8dJat-6" style="edgeStyle=orthogonalEdgeStyle;rounded=0;orthogonalLoop=1;jettySize=auto;html=1;exitX=1;exitY=0.25;exitDx=0;exitDy=0;entryX=0;entryY=0.25;entryDx=0;entryDy=0;strokeWidth=1;endSize=4;" edge="1" parent="1" source="Gnk-OYqFD_igb2B8dJat-18" target="Gnk-OYqFD_igb2B8dJat-8">
          <mxGeometry relative="1" as="geometry" />
        </mxCell>
        <mxCell id="Gnk-OYqFD_igb2B8dJat-7" style="edgeStyle=orthogonalEdgeStyle;rounded=0;orthogonalLoop=1;jettySize=auto;html=1;exitX=0;exitY=0.75;exitDx=0;exitDy=0;entryX=1;entryY=0.75;entryDx=0;entryDy=0;strokeWidth=1;dashed=1;dashPattern=12 12;fillColor=#fa6800;strokeColor=#C75C0A;endSize=4;" edge="1" parent="1" source="Gnk-OYqFD_igb2B8dJat-8" target="Gnk-OYqFD_igb2B8dJat-18">
          <mxGeometry relative="1" as="geometry" />
        </mxCell>
        <mxCell id="Gnk-OYqFD_igb2B8dJat-8" value="RMS" style="rounded=1;whiteSpace=wrap;html=1;" vertex="1" parent="1">
          <mxGeometry x="352" y="122" width="120" height="60" as="geometry" />
        </mxCell>
        <mxCell id="Gnk-OYqFD_igb2B8dJat-9" style="edgeStyle=orthogonalEdgeStyle;rounded=0;jumpStyle=none;orthogonalLoop=1;jettySize=auto;html=1;entryX=0.25;entryY=1;entryDx=0;entryDy=0;strokeColor=default;strokeWidth=1;startSize=6;endSize=4;exitX=0.25;exitY=0;exitDx=0;exitDy=0;" edge="1" parent="1" source="Gnk-OYqFD_igb2B8dJat-22" target="Gnk-OYqFD_igb2B8dJat-8">
          <mxGeometry relative="1" as="geometry">
            <mxPoint x="382" y="290" as="sourcePoint" />
          </mxGeometry>
        </mxCell>
        <mxCell id="Gnk-OYqFD_igb2B8dJat-48" style="edgeStyle=orthogonalEdgeStyle;rounded=0;orthogonalLoop=1;jettySize=auto;html=1;exitX=0.5;exitY=1;exitDx=0;exitDy=0;entryX=0.5;entryY=0;entryDx=0;entryDy=0;" edge="1" parent="1" source="Gnk-OYqFD_igb2B8dJat-13" target="Gnk-OYqFD_igb2B8dJat-25">
          <mxGeometry relative="1" as="geometry" />
        </mxCell>
        <mxCell id="Gnk-OYqFD_igb2B8dJat-49" style="edgeStyle=orthogonalEdgeStyle;rounded=0;orthogonalLoop=1;jettySize=auto;html=1;exitX=0.5;exitY=1;exitDx=0;exitDy=0;" edge="1" parent="1" source="Gnk-OYqFD_igb2B8dJat-13" target="Gnk-OYqFD_igb2B8dJat-23">
          <mxGeometry relative="1" as="geometry" />
        </mxCell>
        <mxCell id="Gnk-OYqFD_igb2B8dJat-50" style="edgeStyle=orthogonalEdgeStyle;rounded=0;orthogonalLoop=1;jettySize=auto;html=1;exitX=0.5;exitY=1;exitDx=0;exitDy=0;" edge="1" parent="1" source="Gnk-OYqFD_igb2B8dJat-13" target="Gnk-OYqFD_igb2B8dJat-43">
          <mxGeometry relative="1" as="geometry" />
        </mxCell>
        <mxCell id="Gnk-OYqFD_igb2B8dJat-51" style="edgeStyle=orthogonalEdgeStyle;rounded=0;orthogonalLoop=1;jettySize=auto;html=1;exitX=0.5;exitY=1;exitDx=0;exitDy=0;entryX=0.5;entryY=0;entryDx=0;entryDy=0;" edge="1" parent="1" source="Gnk-OYqFD_igb2B8dJat-13" target="Gnk-OYqFD_igb2B8dJat-27">
          <mxGeometry relative="1" as="geometry" />
        </mxCell>
        <mxCell id="Gnk-OYqFD_igb2B8dJat-13" value="本币资金管理TBS后台" style="whiteSpace=wrap;html=1;rounded=1;" vertex="1" parent="1">
          <mxGeometry x="120" y="300" width="120" height="60" as="geometry" />
        </mxCell>
        <mxCell id="Gnk-OYqFD_igb2B8dJat-14" style="edgeStyle=orthogonalEdgeStyle;rounded=0;orthogonalLoop=1;jettySize=auto;html=1;entryX=0.75;entryY=1;entryDx=0;entryDy=0;strokeWidth=1;dashed=1;dashPattern=12 12;fillColor=#fa6800;strokeColor=#C75C0A;exitX=0.75;exitY=0;exitDx=0;exitDy=0;endSize=4;startSize=6;jumpStyle=line;" edge="1" parent="1" source="Gnk-OYqFD_igb2B8dJat-13" target="Gnk-OYqFD_igb2B8dJat-18">
          <mxGeometry relative="1" as="geometry">
            <mxPoint x="354" y="240" as="sourcePoint" />
            <mxPoint x="240" y="240" as="targetPoint" />
          </mxGeometry>
        </mxCell>
        <mxCell id="Gnk-OYqFD_igb2B8dJat-15" value="交易轮询" style="text;strokeColor=none;align=center;fillColor=none;html=1;verticalAlign=middle;whiteSpace=wrap;rounded=0;" vertex="1" parent="1">
          <mxGeometry x="120" y="218" width="60" height="30" as="geometry" />
        </mxCell>
        <mxCell id="Gnk-OYqFD_igb2B8dJat-16" value="CCI" style="text;strokeColor=none;align=center;fillColor=none;html=1;verticalAlign=middle;whiteSpace=wrap;rounded=0;" vertex="1" parent="1">
          <mxGeometry x="340" y="230" width="60" height="30" as="geometry" />
        </mxCell>
        <mxCell id="Gnk-OYqFD_igb2B8dJat-17" style="edgeStyle=orthogonalEdgeStyle;rounded=0;jumpStyle=none;orthogonalLoop=1;jettySize=auto;html=1;exitX=0.25;exitY=1;exitDx=0;exitDy=0;strokeColor=default;strokeWidth=1;startSize=6;endSize=4;entryX=0.25;entryY=0;entryDx=0;entryDy=0;" edge="1" parent="1" source="Gnk-OYqFD_igb2B8dJat-18" target="Gnk-OYqFD_igb2B8dJat-13">
          <mxGeometry relative="1" as="geometry">
            <mxPoint x="280" y="272" as="targetPoint" />
          </mxGeometry>
        </mxCell>
        <mxCell id="Gnk-OYqFD_igb2B8dJat-18" value="本币资金交易系统CMS前台" style="rounded=1;whiteSpace=wrap;html=1;" vertex="1" parent="1">
          <mxGeometry x="120" y="122" width="120" height="60" as="geometry" />
        </mxCell>
        <mxCell id="Gnk-OYqFD_igb2B8dJat-19" style="edgeStyle=orthogonalEdgeStyle;rounded=0;orthogonalLoop=1;jettySize=auto;html=1;strokeWidth=1;dashed=1;dashPattern=12 12;fillColor=#fa6800;strokeColor=#C75C0A;exitX=0.75;exitY=1;exitDx=0;exitDy=0;endSize=4;startSize=6;jumpStyle=line;" edge="1" parent="1" source="Gnk-OYqFD_igb2B8dJat-8">
          <mxGeometry relative="1" as="geometry">
            <mxPoint x="408" y="358" as="sourcePoint" />
            <mxPoint x="442" y="300" as="targetPoint" />
          </mxGeometry>
        </mxCell>
        <mxCell id="Gnk-OYqFD_igb2B8dJat-37" style="edgeStyle=orthogonalEdgeStyle;rounded=0;orthogonalLoop=1;jettySize=auto;html=1;exitX=0.75;exitY=1;exitDx=0;exitDy=0;" edge="1" parent="1" source="Gnk-OYqFD_igb2B8dJat-22">
          <mxGeometry relative="1" as="geometry">
            <mxPoint x="440" y="450" as="targetPoint" />
            <Array as="points">
              <mxPoint x="440" y="360" />
            </Array>
          </mxGeometry>
        </mxCell>
        <mxCell id="Gnk-OYqFD_igb2B8dJat-22" value="授信接口" style="whiteSpace=wrap;html=1;rounded=1;" vertex="1" parent="1">
          <mxGeometry x="352" y="300" width="120" height="60" as="geometry" />
        </mxCell>
        <mxCell id="Gnk-OYqFD_igb2B8dJat-23" value="支付系统" style="whiteSpace=wrap;html=1;rounded=1;" vertex="1" parent="1">
          <mxGeometry x="30" y="454" width="60" height="26" as="geometry" />
        </mxCell>
        <mxCell id="Gnk-OYqFD_igb2B8dJat-24" value="大额支付接口" style="text;strokeColor=none;align=center;fillColor=none;html=1;verticalAlign=middle;whiteSpace=wrap;rounded=0;" vertex="1" parent="1">
          <mxGeometry x="10" y="417" width="80" height="30" as="geometry" />
        </mxCell>
        <mxCell id="Gnk-OYqFD_igb2B8dJat-25" value="核心账务系统" style="whiteSpace=wrap;html=1;rounded=1;shadow=0;fillColor=none;" vertex="1" parent="1">
          <mxGeometry x="100" y="454" width="80" height="26" as="geometry" />
        </mxCell>
        <mxCell id="Gnk-OYqFD_igb2B8dJat-55" style="edgeStyle=orthogonalEdgeStyle;rounded=0;orthogonalLoop=1;jettySize=auto;html=1;exitX=1;exitY=0.25;exitDx=0;exitDy=0;entryX=0.4;entryY=1;entryDx=0;entryDy=0;entryPerimeter=0;" edge="1" parent="1" source="Gnk-OYqFD_igb2B8dJat-27" target="Gnk-OYqFD_igb2B8dJat-22">
          <mxGeometry relative="1" as="geometry" />
        </mxCell>
        <mxCell id="Gnk-OYqFD_igb2B8dJat-27" value="数据仓库" style="whiteSpace=wrap;html=1;rounded=1;shadow=0;fillColor=none;" vertex="1" parent="1">
          <mxGeometry x="290" y="454" width="80" height="26" as="geometry" />
        </mxCell>
        <mxCell id="Gnk-OYqFD_igb2B8dJat-38" style="edgeStyle=orthogonalEdgeStyle;rounded=0;orthogonalLoop=1;jettySize=auto;html=1;exitX=0.75;exitY=0;exitDx=0;exitDy=0;dashed=1;dashPattern=12 12;fillColor=#fa6800;strokeColor=#C73500;" edge="1" parent="1" source="Gnk-OYqFD_igb2B8dJat-30">
          <mxGeometry relative="1" as="geometry">
            <mxPoint x="460" y="360" as="targetPoint" />
            <Array as="points">
              <mxPoint x="460" y="454" />
              <mxPoint x="460" y="360" />
            </Array>
          </mxGeometry>
        </mxCell>
        <mxCell id="Gnk-OYqFD_igb2B8dJat-30" value="授信系统" style="whiteSpace=wrap;html=1;rounded=1;shadow=0;fillColor=none;" vertex="1" parent="1">
          <mxGeometry x="414" y="454" width="80" height="26" as="geometry" />
        </mxCell>
        <mxCell id="Gnk-OYqFD_igb2B8dJat-34" value="" style="rounded=1;whiteSpace=wrap;html=1;shadow=0;dashed=1;fillColor=none;" vertex="1" parent="1">
          <mxGeometry x="100" y="270" width="380" height="110" as="geometry" />
        </mxCell>
        <mxCell id="Gnk-OYqFD_igb2B8dJat-39" value="&lt;span style=&quot;color: rgb(0, 0, 0); font-family: Helvetica; font-size: 12px; font-style: normal; font-variant-ligatures: normal; font-variant-caps: normal; font-weight: 400; letter-spacing: normal; orphans: 2; text-align: center; text-indent: 0px; text-transform: none; widows: 2; word-spacing: 0px; -webkit-text-stroke-width: 0px; background-color: rgb(251, 251, 251); text-decoration-thickness: initial; text-decoration-style: initial; text-decoration-color: initial; float: none; display: inline !important;&quot;&gt;数仓接口&lt;/span&gt;" style="text;whiteSpace=wrap;html=1;" vertex="1" parent="1">
          <mxGeometry x="310" y="420.5" width="80" height="23" as="geometry" />
        </mxCell>
        <mxCell id="Gnk-OYqFD_igb2B8dJat-42" value="授信取数" style="text;strokeColor=none;align=center;fillColor=none;html=1;verticalAlign=middle;whiteSpace=wrap;rounded=0;" vertex="1" parent="1">
          <mxGeometry x="354" y="380" width="60" height="30" as="geometry" />
        </mxCell>
        <mxCell id="Gnk-OYqFD_igb2B8dJat-43" value="总账系统" style="whiteSpace=wrap;html=1;rounded=1;shadow=0;fillColor=none;" vertex="1" parent="1">
          <mxGeometry x="200" y="454" width="80" height="26" as="geometry" />
        </mxCell>
        <mxCell id="Gnk-OYqFD_igb2B8dJat-53" value="核心接口" style="text;strokeColor=none;align=center;fillColor=none;html=1;verticalAlign=middle;whiteSpace=wrap;rounded=0;" vertex="1" parent="1">
          <mxGeometry x="100" y="417" width="80" height="30" as="geometry" />
        </mxCell>
        <mxCell id="Gnk-OYqFD_igb2B8dJat-54" value="总账接口" style="text;strokeColor=none;align=center;fillColor=none;html=1;verticalAlign=middle;whiteSpace=wrap;rounded=0;" vertex="1" parent="1">
          <mxGeometry x="200" y="417" width="80" height="30" as="geometry" />
        </mxCell>
      </root>
    </mxGraphModel>
  </diagram>
</mxfile>
